<?xml version="1.0" encoding="UTF-8" standalone="no"?>
<!DOCTYPE svg PUBLIC "-//W3C//DTD SVG 1.1//EN" "http://www.w3.org/Graphics/SVG/1.1/DTD/svg11.dtd">
<svg xmlns="http://www.w3.org/2000/svg" xmlns:xlink="http://www.w3.org/1999/xlink" version="1.1" width="290.00013pt" height="126.31006pt" viewBox="0 0 290.00013 126.31006">
<g enable-background="new">
<path transform="matrix(1,0,0,-1,10.884521,39.710939)" d="M 21.288462 1.000051 L 20.973465 .611751 L 21.111159 .500051 L 21.288462 .500051 L 21.288462 1.000051 Z M 11.038462 9.315063 L 11.353458 9.703363 L 11.215765 9.815063 L 11.038462 9.815063 L 11.038462 9.315063 Z M 42.576925 1.500051 L 21.288462 1.500051 L 21.288462 .500051 L 42.576925 .500051 L 42.576925 1.500051 Z M 21.603459 1.38835 L 11.353458 9.703363 L 10.723465 8.926764 L 20.973465 .611751 L 21.603459 1.38835 Z M 11.038462 9.815063 L 0 9.815063 L 0 8.815063 L 11.038462 8.815063 L 11.038462 9.815063 Z " fill="#ffa41c"/>
<path transform="matrix(1,0,0,-1,15.615479,39.710939)" d="M 18.134615 1.5 L 0 1.5 L 0 .5 L 18.134615 .5 L 18.134615 1.5 Z " fill="#ffa41c"/>
<path transform="matrix(-.999957,-.009319,-.006787,.999977,279.02613,85.75365)" d="M 21.288712 1.396484 L 20.973719 1.008182 L 21.11141 .896484 L 21.288712 .896484 L 21.288712 1.396484 Z M 11.038591 9.711426 L 11.353584 10.099729 L 11.215892 10.211426 L 11.038591 10.211426 L 11.038591 9.711426 Z M 42.577425 1.896484 L 21.288712 1.896484 L 21.288712 .896484 L 42.577425 .896484 L 42.577425 1.896484 Z M 21.603705 1.784788 L 11.353584 10.099729 L 10.723598 9.323123 L 20.973719 1.008182 L 21.603705 1.784788 Z M 11.038591 10.211426 L 0 10.211426 L 0 9.211426 L 11.038591 9.211426 L 11.038591 10.211426 Z " fill="#ffa41c"/>
<path transform="matrix(-.999957,-.009319,-.006787,.999977,274.29396,85.936557)" d="M 18.134829 1.668945 L 0 1.668945 L 0 .668945 L 18.134829 .668945 L 18.134829 1.668945 Z " fill="#ffa41c"/>
<path transform="matrix(1,0,0,-1,22.711426,62.808229)" d="M 0 .5 L 31.53846 .5 L 31.53846 1.5 L 0 1.5 L 0 .5 Z " fill="#ffa41c"/>
<path transform="matrix(1,0,0,-1,3,89.601078)" d="M 25.23077 4.695557 L 25.23077 5.195557 L 25.159043 5.195557 L 25.090207 5.175392 L 25.23077 4.695557 Z M 12.615385 .999995 L 12.615385 .499995 L 12.687113 .499995 L 12.755948 .52016 L 12.615385 .999995 Z M 51.25 5.195557 L 25.23077 5.195557 L 25.23077 4.195557 L 51.25 4.195557 L 51.25 5.195557 Z M 25.090207 5.175392 L 12.474822 1.479831 L 12.755948 .52016 L 25.371335 4.215721 L 25.090207 5.175392 Z M 12.615385 1.499995 L 0 1.499995 L 0 .499995 L 12.615385 .499995 L 12.615385 1.499995 Z " fill="#ffa41c"/>
<path transform="matrix(-.999848,.017456,.012714,.999919,265.40415,58.5951)" d="M 0 1.144653 L 36.93069 1.144653 L 36.93069 2.144653 L 0 2.144653 L 0 1.144653 Z " fill="#ffa41c"/>
<path transform="matrix(-.999909,.013452,.01104,.999939,286.03239,31.435875)" d="M 26.78282 5.427124 L 26.78282 5.927124 L 26.715096 5.927124 L 26.64981 5.909108 L 26.78282 5.427124 Z M 13.39141 1.731612 L 13.39141 1.231612 L 13.459134 1.231612 L 13.524419 1.249628 L 13.39141 1.731612 Z M 54.402605 5.927124 L 26.78282 5.927124 L 26.78282 4.927124 L 54.402605 4.927124 L 54.402605 5.927124 Z M 26.64981 5.909108 L 13.258401 2.213596 L 13.524419 1.249628 L 26.915829 4.94514 L 26.64981 5.909108 Z M 13.39141 2.231612 L 0 2.231612 L 0 1.231612 L 13.39141 1.231612 L 13.39141 2.231612 Z " fill="#ffa41c"/>
<path transform="matrix(1,0,0,-1,9.307617,33.167604)" d="M 6.307693 3.695552 C 6.307693 1.65455 4.895668 -.00001 3.153846 -.00001 C 1.412025 -.00001 0 1.65455 0 3.695552 C 0 5.736554 1.412025 7.391113 3.153846 7.391113 C 4.895668 7.391113 6.307693 5.736554 6.307693 3.695552 Z " fill="#ffa41c"/>
<path transform="matrix(1,0,0,-1,12.461426,42.406496)" d="M 6.307693 3.695552 C 6.307693 1.65455 4.895668 -.00001 3.153846 -.00001 C 1.412025 -.00001 0 1.65455 0 3.695552 C 0 5.736554 1.412025 7.391113 3.153846 7.391113 C 4.895668 7.391113 6.307693 5.736554 6.307693 3.695552 Z " fill="#ffa41c"/>
<path transform="matrix(1,0,0,-1,18.769288,64.579837)" d="M 6.307693 3.695552 C 6.307693 1.65455 4.895668 -.00001 3.153846 -.00001 C 1.412025 -.00001 0 1.65455 0 3.695552 C 0 5.736554 1.412025 7.391113 3.153846 7.391113 C 4.895668 7.391113 6.307693 5.736554 6.307693 3.695552 Z " fill="#ffa41c"/>
<path transform="matrix(1,0,0,-1,283.69239,36.86316)" d="M 6.307693 3.695552 C 6.307693 1.65455 4.895668 -.00001 3.153846 -.00001 C 1.412025 -.00001 0 1.65455 0 3.695552 C 0 5.736554 1.412025 7.391113 3.153846 7.391113 C 4.895668 7.391113 6.307693 5.736554 6.307693 3.695552 Z " fill="#ffa41c"/>
<path transform="matrix(1,0,0,-1,261.61537,64.579837)" d="M 6.307693 3.695552 C 6.307693 1.65455 4.895668 -.00001 3.153846 -.00001 C 1.412025 -.00001 0 1.65455 0 3.695552 C 0 5.736554 1.412025 7.391113 3.153846 7.391113 C 4.895668 7.391113 6.307693 5.736554 6.307693 3.695552 Z " fill="#ffa41c"/>
<path transform="matrix(1,0,0,-1,272.6538,90.44873)" d="M 6.307693 3.695552 C 6.307693 1.65455 4.895668 -.00001 3.153846 -.00001 C 1.412025 -.00001 0 1.65455 0 3.695552 C 0 5.736554 1.412025 7.391113 3.153846 7.391113 C 4.895668 7.391113 6.307693 5.736554 6.307693 3.695552 Z " fill="#ffa41c"/>
<path transform="matrix(1,0,0,-1,277.38465,99.687747)" d="M 6.307693 3.695552 C 6.307693 1.65455 4.895668 -.00001 3.153846 -.00001 C 1.412025 -.00001 0 1.65455 0 3.695552 C 0 5.736554 1.412025 7.391113 3.153846 7.391113 C 4.895668 7.391113 6.307693 5.736554 6.307693 3.695552 Z " fill="#ffa41c"/>
<path transform="matrix(1,0,0,-1,52.51526,66.05823)" d="M 0 -26.146065 L 0 39.91208 L 4.100154 39.91208 L 4.100154 -22.08094 L 29.724999 -22.08094 L 29.724999 -26.146065 L 0 -26.146065 Z " fill="#ffa41c"/>
<path transform="matrix(1,0,0,-1,52.51526,66.05823)" d="M 22.234768 -26.146065 L 22.234768 39.91208 L 45.10015 39.91208 L 45.10015 36.03174 L 26.019387 36.03174 L 26.019387 11.733433 L 38.79246 11.733433 L 38.79246 7.945477 L 26.019387 7.945477 L 26.019387 -22.265732 L 45.10015 -22.265732 L 45.10015 -26.146065 L 22.234768 -26.146065 Z " fill="#ffa41c"/>
<path transform="matrix(1,0,0,-1,52.51526,93.22046)" d="M 98.87324 -.000061 L 98.87324 20.787453 L 60.159769 20.787453 L 60.159769 -.000061 L 56.37515 -.000061 L 56.37515 93.22046 L 60.159769 93.22046 L 60.159769 25.220459 L 98.87324 25.220459 L 98.87324 93.22046 L 102.657848 93.22046 L 102.657848 -.000061 L 98.87324 -.000061 Z " fill="#ffa41c"/>
<path transform="matrix(1,0,0,-1,52.51526,64.67224)" d="M 144.52515 -28.548279 C 140.89823 -33.537294 135.30014 -14.59745 127.888599 -14.59745 C 120.47706 -14.59745 115.01041 -33.506509 111.33092 -28.455903 C 107.703998 -23.405304 105.890529 -16.50692 105.890529 -7.760757 L 105.890529 31.135014 L 109.67515 31.135014 L 109.67515 -7.760757 C 109.67515 -24.021233 115.746288 -14.59745 127.888599 -14.59745 C 140.08347 -14.59745 146.18093 -24.021233 146.18093 -7.760757 L 146.18093 31.135014 L 149.96553 31.135014 L 149.96553 -7.760757 C 149.96553 -16.568512 148.15207 -23.49768 144.52515 -28.548279 Z " fill="#ffa41c"/>
<path transform="matrix(1,0,0,-1,52.51526,66.98193)" d="M 153.90784 40.18911 C 158.00785 40.558664 162.18668 40.74344 166.44437 40.74344 C 170.75463 40.74344 174.4604 39.51159 177.56169 37.047883 C 180.71553 34.584177 182.29245 31.011807 182.29245 26.330761 C 182.29245 22.819977 181.45142 19.555562 179.76937 16.537518 C 178.13988 13.519474 176.16873 11.240555 173.85591 9.700737 C 177.58797 8.345699 180.71552 6.005173 183.23859 2.679169 C 185.76166 -.646843 187.02323 -4.373199 187.02323 -8.499908 C 187.02323 -14.289627 185.4463 -18.69349 182.29245 -21.711533 C 179.19116 -24.729577 174.90718 -26.238587 169.44052 -26.238587 C 164.02642 -26.238587 158.84886 -25.992234 153.90784 -25.499489 L 153.90784 40.18911 Z M 169.9136 -22.26587 C 173.75078 -22.26587 176.90464 -21.03402 179.37514 -18.570313 C 181.84566 -16.045014 183.08092 -12.842194 183.08092 -8.961853 C 183.08092 -5.081512 181.87195 -1.724709 179.454 1.108559 C 177.08861 3.941818 173.82962 5.881992 169.67707 6.929066 C 167.7322 7.421806 165.47194 7.668179 162.8963 7.668179 C 160.37323 7.668179 158.6386 7.668179 157.69245 7.668179 L 157.69245 -21.803925 C 160.00527 -22.111893 164.079 -22.26587 169.9136 -22.26587 Z M 178.50783 26.42315 C 178.50783 29.810746 177.29888 32.428426 174.88092 34.27621 C 172.51554 36.123987 169.83477 37.047883 166.83861 37.047883 C 163.89502 37.047883 160.84629 36.92469 157.69245 36.67832 L 157.69245 11.456123 C 158.37578 11.456123 159.6636 11.456123 161.55591 11.456123 C 163.44821 11.456123 166.23412 11.271351 169.9136 10.901794 C 172.27899 12.380016 174.3027 14.504963 175.98476 17.276635 C 177.66681 20.048306 178.50783 23.097146 178.50783 26.42315 Z " fill="#ffa41c"/>
<path transform="matrix(1,0,0,-1,12,126.01416)" d="M 7.222309 1.441118 C 10.186925 1.441118 12.562822 2.377325 14.350001 4.249743 C 16.158207 6.146797 17.062312 8.99238 17.062312 12.786489 C 17.062312 16.5806 16.042567 19.59864 14.003079 21.840615 C 11.984617 24.082589 9.482565 25.203579 6.496924 25.203579 C 4.583591 25.203579 2.922565 25.141985 1.513847 25.0188 L 1.513847 1.736763 C 2.880513 1.539667 4.783334 1.441118 7.222309 1.441118 Z M 6.496924 26.829627 C 9.966155 26.829627 12.867695 25.560814 15.201541 23.023194 C 17.535387 20.510212 18.702309 17.085659 18.702309 12.749535 C 18.702309 10.556835 18.397439 8.610508 17.787695 6.910549 C 17.198977 5.235228 16.378977 3.892506 15.327695 2.882385 C 13.162054 .837507 10.460258 -.184931 7.222309 -.184931 C 5.098719 -.184931 2.691283 -.049425 0 .221582 L 0 26.570937 C 2.144616 26.743397 4.310257 26.829627 6.496924 26.829627 Z "/>
<path transform="matrix(1,0,0,-1,12,125.423099)" d="M 25.7174 -.443396 L 25.7174 25.979872 L 36.18817 25.979872 L 36.18817 24.427737 L 27.231247 24.427737 L 27.231247 14.708408 L 35.33663 14.708408 L 35.33663 13.193227 L 27.231247 13.193227 L 27.231247 1.108744 L 36.53509 1.108744 L 36.53509 -.443396 L 25.7174 -.443396 Z "/>
<path transform="matrix(1,0,0,-1,12,125.423099)" d="M 53.96034 -.443396 L 53.96034 25.979872 L 55.474184 25.979872 L 55.474184 1.182652 L 65.85034 1.182652 L 65.85034 -.443396 L 53.96034 -.443396 Z "/>
<path transform="matrix(1,0,0,-1,12,103.65625)" d="M 67.5613 4.213026 L 69.23284 4.213026 L 69.23284 2.4022 L 67.908229 -.443383 L 67.18284 -.443383 L 67.5613 1.81091 L 67.5613 4.213026 Z "/>
<path transform="matrix(1,0,0,-1,12,125.607669)" d="M 75.73272 8.906168 L 72.48426 -.258825 L 70.87579 -.258825 L 80.36887 26.34922 L 81.25195 26.34922 L 90.776569 -.258825 L 89.073497 -.258825 L 85.82503 8.906168 L 75.73272 8.906168 Z M 80.7158 23.39277 C 80.69477 23.368134 80.652729 23.22031 80.589649 22.949303 C 80.29529 21.889908 80.01144 20.990654 79.738109 20.251542 L 76.268878 10.421347 L 85.28887 10.421347 L 81.81964 20.214587 C 81.08374 22.087006 80.7158 23.1464 80.7158 23.39277 Z "/>
<path transform="matrix(1,0,0,-1,12,126.31006)" d="M 105.19235 24.53863 C 103.65748 25.30238 102.133129 25.684256 100.61928 25.684256 C 97.54954 25.684256 96.01466 24.353852 96.01466 21.693047 C 96.01466 20.535103 96.36159 19.45107 97.055438 18.440953 C 97.74928 17.455468 98.59031 16.568535 99.578517 15.780148 C 100.56672 15.016397 101.55492 14.228013 102.54312 13.414989 C 103.53133 12.601966 104.37235 11.628802 105.0662 10.495497 C 105.76005 9.36219 106.10697 8.130339 106.10697 6.799936 C 106.10697 4.557962 105.46568 2.858004 104.18312 1.700062 C 102.90056 .566757 101.12389 .000103 98.85313 .000103 C 96.603389 .000103 94.67953 .677622 93.08158 2.032661 L 93.83851 3.363064 C 95.352359 2.205122 97.01338 1.626148 98.82159 1.626148 C 100.62979 1.626148 102.01748 2.044977 102.98466 2.882637 C 103.951839 3.744934 104.43544 4.976791 104.43544 6.578201 C 104.43544 7.686871 104.08851 8.733944 103.39466 9.719427 C 102.70081 10.729548 101.859798 11.628801 100.87159 12.417187 C 99.883388 13.230211 98.89517 14.055553 97.90697 14.893214 C 96.91876 15.730874 96.077739 16.728676 95.38389 17.88662 C 94.69004 19.044562 94.343128 20.288735 94.343128 21.619135 C 94.343128 23.368369 94.88979 24.748047 95.98312 25.758168 C 97.09748 26.792925 98.5903 27.310303 100.461589 27.310303 C 102.3539 27.310303 104.10954 26.866835 105.728519 25.9799 L 105.19235 24.53863 Z "/>
<path transform="matrix(1,0,0,-1,12,126.31006)" d="M 122.43995 24.53863 C 120.905078 25.30238 119.38072 25.684256 117.866878 25.684256 C 114.797138 25.684256 113.26226 24.353852 113.26226 21.693047 C 113.26226 20.535103 113.609188 19.45107 114.30303 18.440953 C 114.99688 17.455468 115.837909 16.568535 116.82611 15.780148 C 117.814319 15.016397 118.80251 14.228013 119.79072 13.414989 C 120.77892 12.601966 121.61995 11.628802 122.3138 10.495497 C 123.007648 9.36219 123.35457 8.130339 123.35457 6.799936 C 123.35457 4.557962 122.71328 2.858004 121.43072 1.700062 C 120.148159 .566757 118.37149 .000103 116.10072 .000103 C 113.85098 .000103 111.927127 .677622 110.32918 2.032661 L 111.086109 3.363064 C 112.59995 2.205122 114.26098 1.626148 116.06918 1.626148 C 117.87739 1.626148 119.265079 2.044977 120.232257 2.882637 C 121.19943 3.744934 121.68304 4.976791 121.68304 6.578201 C 121.68304 7.686871 121.336109 8.733944 120.64226 9.719427 C 119.94841 10.729548 119.10739 11.628801 118.11919 12.417187 C 117.13098 13.230211 116.14277 14.055553 115.154567 14.893214 C 114.16636 15.730874 113.32533 16.728676 112.631488 17.88662 C 111.93764 19.044562 111.59072 20.288735 111.59072 21.619135 C 111.59072 23.368369 112.1374 24.748047 113.23073 25.758168 C 114.345088 26.792925 115.8379 27.310303 117.70918 27.310303 C 119.601497 27.310303 121.35714 26.866835 122.97611 25.9799 L 122.43995 24.53863 Z "/>
<path transform="matrix(1,0,0,-1,12,125.866458)" d="M 155.38237 -.000036 L 155.38237 26.312363 C 157.3798 26.484824 159.05135 26.571055 160.39699 26.571055 C 162.54161 26.571055 164.30776 25.91817 165.69545 24.612404 C 167.08315 23.331278 167.77698 21.508133 167.77698 19.142971 C 167.77698 17.541562 167.3775 16.05102 166.57852 14.671344 C 165.77954 13.291668 164.88596 12.195319 163.89775 11.382296 C 164.6757 10.125805 165.63237 8.622944 166.76776 6.873711 C 167.92418 5.149115 168.67058 4.065083 169.00699 3.621614 C 170.28955 2.020205 171.74033 1.108633 173.3593 .8869 L 173.32776 -.295679 C 172.0452 -.271042 171.00443 -.049309 170.20545 .369522 C 169.40647 .81299 168.63904 1.478189 167.90314 2.365124 C 167.18827 3.252058 165.39058 6.01141 162.51007 10.643181 C 160.44956 10.643181 158.57826 10.717094 156.89621 10.864916 L 156.89621 -.000036 L 155.38237 -.000036 Z M 161.59545 12.121407 C 162.52057 12.121407 163.50878 12.835881 164.56006 14.264832 C 165.61135 15.693783 166.13698 17.344468 166.13698 19.216885 C 166.13698 21.113938 165.59032 22.54289 164.49698 23.503737 C 163.42467 24.48922 161.99494 24.981965 160.20775 24.981965 C 159.2616 24.981965 158.15775 24.932688 156.89621 24.83414 L 156.89621 12.306185 C 158.57826 12.183 160.14467 12.121407 161.59545 12.121407 Z "/>
<path transform="matrix(1,0,0,-1,12,125.607669)" d="M 177.33956 8.906168 L 174.09108 -.258825 L 172.48262 -.258825 L 181.9757 26.34922 L 182.85878 26.34922 L 192.38339 -.258825 L 190.68032 -.258825 L 187.43186 8.906168 L 177.33956 8.906168 Z M 182.32262 23.39277 C 182.30159 23.368134 182.25955 23.22031 182.19647 22.949303 C 181.90212 21.889908 181.61827 20.990654 181.34494 20.251542 L 177.8757 10.421347 L 186.89569 10.421347 L 183.42647 20.214587 C 182.69057 22.087006 182.32262 23.1464 182.32262 23.39277 Z "/>
<path transform="matrix(1,0,0,-1,12,125.866458)" d="M 198.50457 22.210289 L 198.56764 19.069062 L 198.56764 -.000036 L 197.05379 -.000036 L 197.05379 26.644965 L 197.74765 26.644965 L 212.60225 6.578066 C 213.61148 5.173752 214.38944 4.052763 214.9361 3.215103 C 214.85199 4.397682 214.80994 5.752724 214.80994 7.280222 L 214.80994 26.423232 L 216.32379 26.423232 L 216.32379 -.221769 L 215.62995 -.221769 L 200.4915 20.214688 C 199.44022 21.619 198.76737 22.555209 198.473 23.023312 L 198.50457 22.210289 Z "/>
<path transform="matrix(1,0,0,-1,12,126.31006)" d="M 235.30994 .000103 C 232.02994 .000103 229.21251 1.305866 226.85764 3.917397 C 224.50276 6.553564 223.32534 9.793339 223.32534 13.636723 C 223.32534 17.504742 224.35558 20.744519 226.41609 23.356049 C 228.47661 25.992218 231.11534 27.310303 234.33226 27.310303 C 236.85533 27.310303 239.40996 26.817563 241.99611 25.832077 L 241.5861 24.353852 C 239.06304 25.240788 236.64508 25.684256 234.33226 25.684256 C 231.5779 25.684256 229.32816 24.52631 227.58303 22.210427 C 225.83789 19.894539 224.96533 17.061276 224.96533 13.710633 C 224.96533 10.359991 225.97455 7.502092 227.99301 5.136932 C 230.0325 2.79641 232.47148 1.626148 235.30994 1.626148 C 237.79096 1.626148 239.93558 2.069614 241.74379 2.956549 L 242.21688 1.700062 C 241.4179 1.158047 240.36661 .739212 239.06302 .443567 C 237.78046 .147923 236.52942 .000103 235.30994 .000103 Z "/>
<path transform="matrix(1,0,0,-1,12,125.423099)" d="M 248.1498 -.443396 L 248.1498 25.979872 L 258.62059 25.979872 L 258.62059 24.427737 L 249.66365 24.427737 L 249.66365 14.708408 L 257.76905 14.708408 L 257.76905 13.193227 L 249.66365 13.193227 L 249.66365 1.108744 L 258.9675 1.108744 L 258.9675 -.443396 L 248.1498 -.443396 Z "/>
<path transform="matrix(1,0,0,-1,0,92)" d="M 7 3.5 C 7 1.567003 5.432997 0 3.5 0 C 1.567003 0 0 1.567003 0 3.5 C 0 5.432997 1.567003 7 3.5 7 C 5.432997 7 7 5.432997 7 3.5 Z " fill="#ffa41c"/>
<path transform="matrix(1,0,0,-1,141,126)" d="M 16.654742 2.896837 C 15.091235 .965612 12.711986 0 9.516994 0 C 6.322003 0 3.931425 .977533 2.345259 2.9326 C .781753 4.887667 0 7.558001 0 10.943604 L 0 26 L 1.631485 26 L 1.631485 10.943604 C 1.631485 4.649244 4.248658 1.502062 9.483006 1.502062 C 14.740012 1.502062 17.368517 4.649244 17.368517 10.943604 L 17.368517 26 L 19 26 L 19 10.943604 C 19 7.534159 18.218249 4.851902 16.654742 2.896837 Z "/>
</g>
</svg>
