<svg xmlns="http://www.w3.org/2000/svg" version="1.1" xmlns:xlink="http://www.w3.org/1999/xlink" xmlns:svgjs="http://svgjs.dev/svgjs" viewBox="0 0 600 600" opacity="1"><path d="M173.54742074912622 240.76876184814205C150.27336272503769 210.04177210204807 203.88214517539575 131.85139518452817 219.83402658408716 81.51143762939304C235.78590799277856 31.171480074257943 216.56519215212097 -63.62454234090319 269.25870920127466 -61.2709834826675C321.9522262504283 -58.91742462443182 520.9585179577851 41.10873084736994 535.99512887901 95.6327907788071C551.0317398002347 150.1568507102443 419.8863260835989 241.68404759439852 359.4783747286184 265.87337610595455C299.07042337363794 290.06270461751046 196.82147877321472 271.4957515942358 173.54742074912622 240.76876184814205C150.27336272503769 210.04177210204807 203.88214517539575 131.85139518452817 219.83402658408716 81.51143762939304 " fill="url(&quot;#SvgjsLinearGradient1001&quot;)" stroke-width="0" stroke="hsl(340, 45%, 30%)" transform="matrix(1.0769742784278085,-0.39198658041804374,-0.39198658041804374,-1.0769742784278085,-10.595862594561538,560.2836064150172)"></path><defs><pattern id="ssshape-pattern2" width="76" height="76" viewBox="0 0 40 40" patternUnits="userSpaceOnUse">
  <rect width="100%" height="100%" fill="hsl(50, 98%, 60%)"></rect>
  <path d="M0 20v20l14-20L20 0l-20 20zM20 20v20l14-20L40 0l-20 20z" fill="hsl(340, 45%, 25%)" fill-opacity="0.5"></path>
  <path d="M0 40v-20l20-20l-10 20zM20 40v-20l20-20l-10 20zM20 20v20l-20 20l9-20zM20-20v20l-20 20l9-20zM40 20v20l-20 20l9-20zM40-20v20l-20 20l9-20z" fill="hsl(340, 45%, 25%)"></path>
</pattern><linearGradient id="SvgjsLinearGradient1001" gradientTransform="rotate(0, 0.5, 0.5)"><stop stop-color="hsl(335, 77%, 60%)" offset="0"></stop><stop stop-color="hsl(335, 77%, 80%)" offset="1"></stop></linearGradient><radialGradient id="SvgjsRadialGradient1002"><stop stop-color="hsl(340, 45%, 50%)" offset="0"></stop><stop stop-color="hsl(340, 45%, 80%)" offset="1"></stop></radialGradient><linearGradient id="SvgjsLinearGradient1003"><stop stop-color="hsl(205, 69%, 60%)" offset="0"></stop><stop stop-color="hsl(205, 69%, 80%)" offset="1"></stop></linearGradient></defs><path d="M47.571789133451716 351.0867545354171C24.297731109363184 320.3597647893234 77.90651355972125 242.16938787180214 93.85839496841265 191.8294303166671C109.81027637710406 141.48947276153203 90.5895605364465 46.69345034637087 143.28307758560015 49.04700920460655C195.97659463475378 51.40056806284224 394.98288634211053 151.42672353464397 410.01949726333453 205.95078346608116C425.0561081845585 260.4748433975183 293.9106944679244 352.0020402816736 233.5027431129439 376.1913687932296C173.09479175796343 400.38069730478554 70.84584715754025 381.8137442815109 47.571789133451716 351.0867545354171C24.297731109363184 320.3597647893234 77.90651355972125 242.16938787180214 93.85839496841265 191.8294303166671 " fill-opacity="1" fill="url(&quot;#SvgjsLinearGradient1003&quot;)" opacity="1" stroke-opacity="1" stroke-width="0" stroke="hsl(340, 45%, 30%)" transform="matrix(1.0997437500000005,-1.3467976633198076e-16,-1.3877787807814457e-16,-1.0997437500000005,60.379529666590514,548.6409100443841)"></path></svg>