<svg xmlns="http://www.w3.org/2000/svg" version="1.1" xmlns:xlink="http://www.w3.org/1999/xlink" xmlns:svgjs="http://svgjs.dev/svgjs" viewBox="0 0 800 800"><defs><linearGradient x1="50%" y1="0%" x2="50%" y2="100%" id="uundulate-grad"><stop stop-color="hsl(184, 74%, 44%)" stop-opacity="1" offset="45%"></stop><stop stop-color="hsl(332, 87%, 70%)" stop-opacity="1" offset="100%"></stop></linearGradient></defs><g stroke-width="2" stroke="url(#uundulate-grad)" fill="none"><path d="M582.5097070730328 124.02392837861112C687.2651356489696 274.00304189674193 697.2550537610595 706.6884700012095 641.444155368359 779.1591688908488C585.6332569756585 851.629867780488 419.37282336400654 621.862396567011 314.61739478806965 471.88328304888034C209.86196621213276 321.90416953074964 82.80719981116209 131.73012289346048 138.6180982038626 59.25942400382121C194.42899659656314 -13.211274885818057 477.7542784970958 -25.955185139519585 582.5097070730328 124.02392837861112C687.2651356489696 274.00304189674193 697.2550537610595 706.6884700012095 641.444155368359 779.1591688908488 "></path><path d="M574.2138154584737 136.56830636779358C674.2076336445954 279.73018745328204 683.7434645697721 692.7480960984558 630.4694251949215 761.9246723112931C577.195385820071 831.1012485241308 418.49224464531244 611.7777532749026 318.4984264591908 468.6158721894142C218.50460827306915 325.4539911039258 97.22505852668809 143.92421931378612 150.49909790153856 74.74764310094866C203.7731372763891 5.571066888111204 474.2199972723522 -6.593574717694878 574.2138154584737 136.56830636779358C674.2076336445954 279.73018745328204 683.7434645697721 692.7480960984558 630.4694251949215 761.9246723112931 "></path><path d="M565.9179391027037 149.11268435697605C661.15014689901 285.45733300982215 670.2318906372735 678.8077221957018 619.4947102802731 744.6901757317376C568.7575299232726 810.5726292677732 417.6116811854073 601.6931099827942 322.3794733891009 465.3484613299481C227.14726559279467 329.0038126771019 111.64293250100314 156.11831573411177 162.38011285800366 90.23586219807612C213.1172932150041 24.353408662040408 470.68573130639754 12.768035704129886 565.9179391027037 149.11268435697605C661.15014689901 285.45733300982215 670.2318906372735 678.8077221957018 619.4947102802731 744.6901757317376 "></path><path d="M557.6220780057229 161.65703182858033C648.0926754122139 291.18444804878413 656.7203319635641 664.8673177753698 608.5200106244138 727.4556486346037C560.3196892852633 790.0439794938375 416.7311329842912 591.6084361731075 326.26053557780017 462.0810199529037C235.78993817130925 332.5536037326999 126.06082173410732 168.3123816368593 174.26114307325776 105.7240507776254C222.4614644124082 43.13571991839149 467.15148059923195 32.129615608376525 557.6220780057229 161.65703182858033C648.0926754122139 291.18444804878413 656.7203319635641 664.8673177753698 608.5200106244138 727.4556486346037 "></path><path d="M549.3261558735858 174.2014098177628C635.0351428902613 296.91159360532424 643.2087122546985 650.926943872616 597.545249933398 710.2211520550482C551.8817876120977 769.5153602374803 415.8505237480189 581.523792880999 330.1415367313432 458.81360909343755C244.43254971466757 336.10342530587604 140.4786499320552 180.50647805718495 186.1421122533556 121.21226987475285C231.80557457465602 61.91806169232075 463.6171688569101 51.49122603020129 549.3261558735858 174.2014098177628C635.0351428902613 296.91159360532424 643.2087122546985 650.926943872616 597.545249933398 710.2211520550482 "></path><path d="M541.0302490002377 186.74575728936713C621.977625627098 302.63870864428634 629.697107804622 636.986539452284 586.5705045011716 692.9866249579144C543.4439011977212 748.9867104635446 414.9699297705356 571.4391190713125 334.0225531436753 455.54616771639326C253.0751765168149 339.65321636147405 154.89649338879212 192.70054395993247 198.02309669224252 136.70045845430218C241.1496999956929 80.70037294867183 460.0828723733773 70.85280593444793 541.0302490002377 186.74575728936713C621.977625627098 302.63870864428634 629.697107804622 636.986539452284 586.5705045011716 692.9866249579144 "></path><path d="M532.7343421268896 199.29013527854954C608.9201083639346 308.36585420082645 616.1855033545454 623.0461655495301 575.595759068945 675.7521283783587C535.0060147833447 728.4580912071873 414.0893357930523 561.354475779204 337.9035695560073 452.2787568569272C261.7178033189623 343.2030379346503 169.3143368455291 204.89464038025818 209.9040811311295 152.18867755142963C250.49382541672986 99.48271472260109 456.54857588984464 90.2144163562727 532.7343421268896 199.29013527854954C608.9201083639346 308.36585420082645 616.1855033545454 623.0461655495301 575.595759068945 675.7521283783587 "></path><path d="M524.4384352535415 211.834513267732C595.8625911007712 314.09299975736656 602.6738989044688 609.1057916467764 564.6210136367185 658.5176317988031C526.5681283689681 707.9294719508299 413.20874181556906 551.2698324870955 341.7845859683394 449.01134599746104C270.3604301211097 346.75285950782643 183.73218030226604 217.08873680058383 221.7850655700164 167.6768966485571C259.83795083776675 118.26505649653029 453.01427940631186 109.5760267780974 524.4384352535415 211.834513267732C595.8625911007712 314.09299975736656 602.6738989044688 609.1057916467764 564.6210136367185 658.5176317988031 "></path><path d="M516.1425436389825 224.37889125691447C582.8050890963968 319.8201453139068 589.1623097131813 595.1654177440225 553.646283463281 641.2831352192475C518.1302572133807 687.4008526944725 412.32816309687496 541.1851891949872 345.66561763946055 445.74393513799487C279.00307218204614 350.30268108100256 198.15003901779204 229.28283322090948 233.66606526769237 183.1651157456845C269.1820915175927 137.04739827045955 449.47999818156813 128.93763719992216 516.1425436389825 224.37889125691447C582.8050890963968 319.8201453139068 589.1623097131813 595.1654177440225 553.646283463281 641.2831352192475 "></path><path d="M507.8466520244235 236.92323872851875C569.7475870920225 325.54726035286876 575.6507205218938 581.2250133236905 542.6715532898436 624.0486081221137C509.6923860577932 666.8722029205369 411.44758437818075 531.1005153853005 349.54664931058164 442.4764937609506C287.64571424298254 353.8524721366007 212.5678977333181 241.476899123657 245.54706496536835 198.65330432523382C278.52623219741866 155.82970952681063 445.9457169568244 148.2992171041688 507.8466520244235 236.92323872851875C569.7475870920225 325.54726035286876 575.6507205218938 581.2250133236905 542.6715532898436 624.0486081221137 "></path><path d="M499.5507756686535 249.46761671770122C556.6901003464372 331.27440590940887 562.1391465893953 567.2846394209367 531.6968383751951 606.8141115425581C501.2545301609948 646.3435836641795 410.5670209182756 521.015872093192 353.42769624049185 439.2090829014844C296.28837156270805 357.4022937097768 226.98577170763315 253.6709955439827 257.42807992183344 214.14152342236127C287.87038813603374 174.6120513007399 442.41145099086975 167.66082752599357 499.5507756686535 249.46761671770122C556.6901003464372 331.27440590940887 562.1391465893953 567.2846394209367 531.6968383751951 606.8141115425581 "></path><path d="M491.25483827772734 262.01196418930556C543.6325525656957 337.00152094837097 548.6275116217407 553.3442350006047 520.7220624253905 589.5795844454244C492.8166132290402 625.814933890244 409.6863964232142 510.9311982835055 357.30868213524576 435.94164152444023C304.9309678472773 360.9520847653748 241.40358464679196 265.86506144673024 269.30903384314223 229.6297120019106C297.2144830394925 193.39436255709097 438.87712398975884 187.0224074302402 491.25483827772734 262.01196418930556C543.6325525656957 337.00152094837097 548.6275116217407 553.3442350006047 520.7220624253905 589.5795844454244 "></path><path d="M482.95894666316826 274.556342178488C530.5750505613214 342.7286665049111 535.1159224304531 539.403861097851 509.7473322519529 572.3450878658688C484.3787420734527 605.2863146338866 408.80581770452005 500.84655499139717 361.18971380636685 432.67423066497406C313.57360990821377 364.50190633855095 255.821443362318 278.0591578670559 281.1900335408182 245.11793109903806C306.55862371931846 212.17670433102018 435.3428427650152 206.38401785206497 482.95894666316826 274.556342178488C530.5750505613214 342.7286665049111 535.1159224304531 539.403861097851 509.7473322519529 572.3450878658688 "></path><path d="M474.6630550486093 287.1007201676705C517.5175485569471 348.4558120614512 521.6043332391657 525.4634871950971 498.77260207851543 555.1105912863131C475.94087091786525 584.7576953775292 407.92523898582584 490.7619116992886 365.070745477488 429.4068198055079C322.21625196915016 368.0517279117271 270.239302077844 290.25325428738154 293.07103323849424 260.6061501961655C315.9027643991444 230.95904610494944 431.80856154027146 225.74562827388968 474.6630550486093 287.1007201676705C517.5175485569471 348.4558120614512 521.6043332391657 525.4634871950971 498.77260207851543 555.1105912863131 "></path><path d="M466.3671634340503 299.64506763927477C504.46004655257275 354.1829271004132 508.0927440478781 511.52308277476504 487.79787190507795 537.8760641891794C467.5029997622778 564.2290456035937 407.04466026713163 480.677237889602 368.95177714860915 426.1393784284636C330.8588940300866 371.60151896732515 284.65716079337 302.44732019012906 304.9520329361702 276.0943387757148C325.24690507897037 249.74135736130052 428.2742803155278 245.10720817813632 466.3671634340503 299.64506763927477C504.46004655257275 354.1829271004132 508.0927440478781 511.52308277476504 487.79787190507795 537.8760641891794 "></path><path d="M458.07127181949124 312.1894303696682C491.4025445481984 359.9100573981643 494.58115485659073 497.5826936132222 476.8231417316405 520.6415523508347C459.06512860669034 543.7004110884473 406.1640815484375 470.5925793387046 372.83280881973025 422.87195231020837C339.50153609102307 375.1513252817122 299.07501950889605 314.6414013516657 316.8330326338462 291.5825426140532C334.5910457587964 268.5236838764407 424.73999909078407 264.468803341172 458.07127181949124 312.1894303696682C491.4025445481984 359.9100573981643 494.58115485659073 497.5826936132222 476.8231417316405 520.6415523508347 "></path><path d="M449.7753802049322 324.7338236176397C478.3450425438241 365.6372182134935 481.0695656653031 483.6423349692575 465.848411558203 503.4070710300681C450.6272574511029 523.1718070908788 405.28350282974327 460.50795130538506 376.7138404908514 419.60455670953127C348.1441781519595 378.70116211367747 313.49287822442204 326.8355130307804 328.71403233152216 307.0707769699697C343.93518643862234 287.306040909159 421.20571786604035 283.83042902178585 449.7753802049322 324.7338236176397C478.3450425438241 365.6372182134935 481.0695656653031 483.6423349692575 465.848411558203 503.4070710300681 "></path><path d="M441.47947333158413 337.2781558304549C465.2875252806607 371.3643179936665 467.55796121522656 469.7019152901364 454.87366612597646 486.17252867414527C442.18937103672636 502.64314205815424 404.40290885226 450.4232622369095 380.5948569031834 416.33710007369797C356.78680495410686 382.2509379104864 327.910721681159 339.0295636747389 340.59501677040913 322.55895029072997C353.27931185965923 306.08833690672105 417.67142138250756 303.1919936672434 441.47947333158413 337.2781558304549C465.2875252806607 371.3643179936665 467.55796121522656 469.7019152901364 454.87366612597646 486.17252867414527 "></path><path d="M433.18358171702516 349.8225338196374C452.2300232762864 377.09146355020664 454.04637202393906 455.7615413873825 443.898935952539 468.9380320945897C433.7514998811389 482.11452280179685 403.52233013356584 440.338618944801 384.4758885743046 413.0696892142318C365.4294470150433 385.80075948366255 342.328580396685 351.22366009506453 352.4760164680851 338.0471693878574C362.6234525394852 324.87067868065026 414.1371401577639 322.5536040890682 433.18358171702516 349.8225338196374C452.2300232762864 377.09146355020664 454.04637202393906 455.7615413873825 443.898935952539 468.9380320945897 "></path><path d="M424.88769010246614 362.3668965500308C439.17252127191205 382.8185938479577 440.53478283265156 441.8211522258397 432.9242057791015 451.703520256245C425.31362872555144 461.58588828665034 402.64175141487164 430.25396039390347 388.35692024542567 409.80226309597657C374.07208907597976 389.3505657980497 356.746439112211 363.4177412566011 364.3570161657611 353.5353732261958C371.96759321931114 343.65300519579046 410.6028589330202 341.91519925210383 424.88769010246614 362.3668965500308C439.17252127191205 382.8185938479577 440.53478283265156 441.8211522258397 432.9242057791015 451.703520256245 "></path><path d="M416.59178322911805 374.9112592804242C426.11500400874866 388.5457241457088 427.023178382575 427.88076306429673 421.94946034687496 434.46900841790034C416.8757423111749 441.0572537715039 401.76115743738836 420.169301843006 392.23793665775776 406.53483697772134C382.71471587812715 392.90037211243674 371.16428256894795 375.61182241813776 376.238000604648 369.02357706453415C381.3117186403481 362.4353317109306 407.0685624494874 361.27679441513953 416.59178322911805 374.9112592804242C426.11500400874866 388.5457241457088 427.023178382575 427.88076306429673 421.94946034687496 434.46900841790034 "></path><path d="M408.295891614559 387.4556372696066C413.0575020043743 394.2728697022489 413.5115891912875 413.9403891615429 410.9747301734375 417.2345118383447C408.43787115558746 420.52863451514645 400.8805787186942 410.08465855089753 396.11896832887885 403.26742611825523C391.35735793906355 396.45019368561293 385.582141284474 387.8059188384634 388.119000302324 384.5117961616616C390.65585932017405 381.21767348485986 403.5342812247437 380.6384048369643 408.295891614559 387.4556372696066C413.0575020043743 394.2728697022489 413.5115891912875 413.9403891615429 410.9747301734375 417.2345118383447 "></path></g></svg>